<svg class="thumb" width="160" height="160" viewBox="0,0,409,145" xmlns="http://www.w3.org/2000/svg" xmlns:inkscape="http://www.inkscape.org/namespaces/inkscape" xmlns:sodipodi="http://sodipodi.sourceforge.net/DTD/sodipodi-0.dtd" xmlns:xlink="http://www.w3.org/1999/xlink" xmlns:ns1="http://www.inkscape.org/namespaces/inkscape" xmlns:sketch="http://www.bohemiancoding.com/sketch/ns"><defs></defs><g><g transform="matrix(0.5,0,0,0.5,153,0.5)"><svg width="363.42857142857144" height="246" style="overflow: visible;"><defs><linearGradient x1="0" y1="0.5" x2="1" y2="0.5" id="linearGradientSkissxpuoji"><stop offset="0%" stop-color="#7e7e7e"></stop><stop offset="100%" stop-color="#7e7e7e"></stop></linearGradient><linearGradient x1="0" y1="0.5" x2="1" y2="0.5" id="linearGradientSkissxpuoji"><stop offset="0%" stop-color="#7e7e7e"></stop><stop offset="100%" stop-color="#7e7e7e"></stop></linearGradient><linearGradient x1="0" y1="0.5" x2="1" y2="0.5" id="linearGradientSkissxpuoji"><stop offset="0%" stop-color="#7e7e7e"></stop><stop offset="100%" stop-color="#7e7e7e"></stop></linearGradient><linearGradient x1="0" y1="0.5" x2="1" y2="0.5" id="linearGradientSkissxpuoji"><stop offset="0%" stop-color="#7e7e7e"></stop><stop offset="100%" stop-color="#7e7e7e"></stop></linearGradient><linearGradient x1="0" y1="0.5" x2="1" y2="0.5" id="linearGradientSkissxpuoji"><stop offset="0%" stop-color="#7e7e7e"></stop><stop offset="100%" stop-color="#7e7e7e"></stop></linearGradient><linearGradient x1="0" y1="0.5" x2="1" y2="0.5" id="linearGradientSkissxpuoji"><stop offset="0%" stop-color="#7e7e7e"></stop><stop offset="100%" stop-color="#7e7e7e"></stop></linearGradient><linearGradient x1="0" y1="0.5" x2="1" y2="0.5" id="linearGradientSkissxpuoji"><stop offset="0%" stop-color="#7e7e7e"></stop><stop offset="100%" stop-color="#7e7e7e"></stop></linearGradient><linearGradient x1="0" y1="0.5" x2="1" y2="0.5" id="linearGradientSkissxpuoji"><stop offset="0%" stop-color="#7e7e7e"></stop><stop offset="100%" stop-color="#7e7e7e"></stop></linearGradient></defs><g><path d="M-114.2831640625-14.06L-114.2831640625-14.06Q-114.2831640625-16.26 -113.8631640625-18.31Q-113.4531640625-20.36 -113.0631640625-21.58L-113.0631640625-21.58L-104.3731640625-21.58Q-104.3731640625-17.92 -104.0031640625-15.45Q-103.6331640625-12.99 -102.8031640625-11.52Q-101.9731640625-10.06 -100.5831640625-9.42Q-99.1931640625-8.79 -97.1931640625-8.79L-97.1931640625-8.79Q-94.4131640625-8.79 -93.1431640625-10.35Q-91.8731640625-11.91 -91.8731640625-13.96L-91.8731640625-13.96Q-91.8731640625-15.04 -92.1631640625-16.02Q-92.45316406250001-16.99 -92.9931640625-17.99Q-93.53316406249999-18.99 -94.3131640625-20.02Q-95.0931640625-21.04 -96.0731640625-22.27L-96.0731640625-22.27L-105.1031640625-32.91Q-106.8631640625-35.11 -108.4931640625-37.38Q-110.1331640625-39.65 -111.3731640625-42.07Q-112.6231640625-44.48 -113.3831640625-47.12Q-114.1331640625-49.76 -114.1331640625-52.69L-114.1331640625-52.69Q-114.1331640625-56.59 -112.7931640625-59.47Q-111.4531640625-62.35 -109.1831640625-64.26Q-106.9131640625-66.16 -103.9331640625-67.09Q-100.95316406250001-68.02 -97.6331640625-68.02L-97.6331640625-68.02Q-93.9731640625-68.02 -91.0431640625-67.14Q-88.1131640625-66.26 -86.0131640625-64.5Q-83.9131640625-62.74 -82.78316406249999-60.13Q-81.6631640625-57.52 -81.6631640625-54.05L-81.6631640625-54.05Q-81.6631640625-51.71 -82.0831640625-49.51Q-82.4931640625-47.31 -82.8831640625-45.75L-82.8831640625-45.75L-91.4331640625-45.75Q-91.4831640625-49.07 -91.7231640625-51.56Q-91.9631640625-54.05 -92.6231640625-55.69Q-93.28316406249999-57.32 -94.4331640625-58.15Q-95.5831640625-58.98 -97.4331640625-58.98L-97.4331640625-58.98Q-99.0431640625-58.98 -100.1231640625-58.47Q-101.1931640625-57.96 -101.8531640625-57.13Q-102.5131640625-56.3 -102.78316406249999-55.27Q-103.0531640625-54.25 -103.0531640625-53.17L-103.0531640625-53.17Q-103.0531640625-50.83 -101.9331640625-48.83Q-100.8031640625-46.83 -98.95316406250001-44.48L-98.95316406250001-44.48L-89.0831640625-32.91Q-88.0131640625-31.59 -86.5931640625-29.71Q-85.1831640625-27.83 -83.9131640625-25.56Q-82.6431640625-23.29 -81.76316406250001-20.61Q-80.8831640625-17.92 -80.8831640625-14.99L-80.8831640625-14.99Q-80.8831640625-11.43 -82.00316406249999-8.52Q-83.1331640625-5.62 -85.3231640625-3.56Q-87.5231640625-1.51 -90.7231640625-0.39Q-93.9231640625 0.73 -98.0231640625 0.73L-98.0231640625 0.73Q-101.3931640625 0.73 -104.3731640625-0.02Q-107.3531640625-0.78 -109.5431640625-2.51Q-111.7431640625-4.25 -113.0131640625-7.08Q-114.2831640625-9.91 -114.2831640625-14.06ZM-69.7546484375-16.75L-69.7546484375-58.45L-74.9746484375-58.45L-74.9746484375-67.24L-68.6746484375-67.24L-66.1846484375-84.67L-57.394648437499995-84.67L-57.394648437499995-67.24L-46.6546484375-67.24L-46.6546484375-58.45L-57.394648437499995-58.45L-57.394648437499995-15.67Q-57.394648437499995-13.48 -56.9846484375-12.13Q-56.5646484375-10.79 -55.8346484375-10.03Q-55.1046484375-9.28 -54.1246484375-9.03Q-53.144648437499995-8.79 -52.0746484375-8.79L-52.0746484375-8.79Q-50.2646484375-8.79 -48.8746484375-9.23Q-47.4846484375-9.67 -46.2146484375-10.45L-46.2146484375-10.45L-46.2146484375-3.61Q-47.2946484375-2.29 -48.534648437499996-1.46Q-49.784648437499996-0.63 -51.0946484375-0.12Q-52.4146484375 0.39 -53.784648437499996 0.59Q-55.1546484375 0.78 -56.4746484375 0.78L-56.4746484375 0.78Q-59.0546484375 0.78 -61.4546484375 0.1Q-63.8446484375-0.59 -65.6946484375-2.51Q-67.55464843749999-4.44 -68.6546484375-7.86Q-69.7546484375-11.28 -69.7546484375-16.75L-69.7546484375-16.75ZM-40.745664062500005 12.94L-40.745664062500005 12.94Q-37.96566406250001 13.33 -35.61566406250001 12.77Q-33.275664062500006 12.21 -31.595664062500006 10.64Q-29.90566406250001 9.08 -28.90566406250001 6.52Q-27.90566406250001 3.96 -27.755664062500006 0.39L-27.755664062500006 0.39L-43.675664062500005-67.24L-31.125664062500007-67.24L-24.045664062500006-30.03L-21.99566406250001-17.19L-21.605664062500008-17.19L-20.185664062500006-30.03L-14.475664062500009-67.24L-2.315664062500005-67.24L-16.47566406250001 2.49Q-17.40566406250001 7.32 -18.845664062500006 10.94Q-20.285664062500008 14.55 -22.415664062500007 16.94Q-24.535664062500008 19.34 -27.465664062500007 20.53Q-30.395664062500007 21.73 -34.30566406250001 21.73L-34.30566406250001 21.73Q-37.47566406250001 21.73 -40.79566406250001 20.51L-40.79566406250001 20.51L-40.745664062500005 12.94ZM 5.831992187499991 0L 5.831992187499991-88.82L 18.19199218749999-88.82L 18.19199218749999 0L 5.831992187499991 0ZM 47.29144531249999 0.73L 47.29144531249999 0.73Q 42.94144531249999 0.73  39.60144531249998-0.88Q 36.25144531249998-2.49  33.96144531249999-5.91Q 31.661445312499986-9.33  30.491445312499984-14.67Q 29.321445312499986-20.02  29.321445312499986-27.54L 29.321445312499986-27.54L 29.321445312499986-40.23Q 29.321445312499986-46.63  30.271445312499985-51.2Q 31.221445312499988-55.76  32.76144531249999-58.86Q 34.301445312499986-61.96  36.33144531249999-63.77Q 38.35144531249998-65.58  40.50144531249998-66.53Q 42.65144531249999-67.48  44.771445312499985-67.75Q 46.90144531249999-68.02  48.701445312499985-68.02L 48.701445312499985-68.02Q 52.021445312499985-68.02  55.10144531249999-67.02Q 58.18144531249999-66.02  60.521445312499985-63.6Q 62.86144531249999-61.18  64.26144531249999-57.13Q 65.65144531249999-53.08  65.65144531249999-47.02L 65.65144531249999-47.02Q 65.65144531249999-44.97  65.53144531249998-42.87Q 65.40144531249999-40.77  65.21144531249999-38.75Q 65.01144531249999-36.72  64.70144531249998-34.81Q 64.38144531249998-32.91  64.04144531249999-31.3L 64.04144531249999-31.3L 41.72144531249998-31.3L 41.72144531249998-24.46Q 41.72144531249998-20.07  42.061445312499984-17.07Q 42.411445312499986-14.06  43.21144531249999-12.23Q 44.021445312499985-10.4  45.411445312499986-9.59Q 46.801445312499986-8.79  48.90144531249999-8.79L 48.90144531249999-8.79Q 50.021445312499985-8.79  51.10144531249999-9.25Q 52.17144531249998-9.72  52.981445312499986-10.79Q 53.78144531249998-11.87  54.271445312499985-13.65Q 54.76144531249999-15.43  54.76144531249999-18.07L 54.76144531249999-18.07L 54.76144531249999-20.17L 65.06144531249998-20.17L 65.06144531249998-17.58Q 65.06144531249998-8.01  60.50144531249999-3.64Q 55.93144531249999 0.73  47.29144531249999 0.73ZM 41.72144531249998-39.6L 54.121445312499986-39.6Q 54.17144531249998-40.14  54.22144531249998-41.04Q 54.271445312499985-41.94  54.301445312499986-42.92Q 54.32144531249999-43.9  54.32144531249999-44.85Q 54.32144531249999-45.8  54.32144531249999-46.48L 54.32144531249999-46.48Q 54.32144531249999-53.13  52.76144531249999-56.05Q 51.19144531249999-58.98  48.121445312499986-58.98L 48.121445312499986-58.98Q 46.51144531249999-58.98  45.29144531249999-58.23Q 44.07144531249999-57.47  43.28144531249998-55.69Q 42.50144531249998-53.91  42.11144531249998-50.98Q 41.72144531249998-48.05  41.72144531249998-43.7L 41.72144531249998-43.7L 41.72144531249998-39.6ZM 88.99097656249997 0.78L 88.99097656249997 0.78Q 87.87097656249998 0.78  86.35097656249997 0.56Q 84.84097656249997 0.34  83.23097656249998-0.44Q 81.62097656249998-1.22  80.05097656249997-2.78Q 78.49097656249997-4.35  77.27097656249997-7.06Q 76.05097656249997-9.77  75.29097656249998-13.77Q 74.54097656249998-17.77  74.54097656249998-23.49L 74.54097656249998-23.49L 74.54097656249998-44.82Q 74.54097656249998-50.49  75.34097656249997-54.39Q 76.15097656249998-58.3  77.46097656249997-60.86Q 78.78097656249997-63.43  80.42097656249997-64.87Q 82.05097656249997-66.31  83.69097656249997-66.99Q 85.33097656249997-67.68  86.82097656249996-67.82Q 88.30097656249997-67.97  89.28097656249997-67.97L 89.28097656249997-67.97Q 91.09097656249997-67.97  92.70097656249997-67.48Q 94.31097656249997-66.99  95.63097656249997-66.19Q 96.95097656249997-65.38  97.97097656249997-64.38Q 99.00097656249997-63.38  99.68097656249998-62.35L 99.68097656249998-62.35L 99.73097656249998-62.4L 99.34097656249997-70.9L 99.34097656249997-88.82L 111.64097656249997-88.82L 111.64097656249997 0L 102.03097656249997 0L 100.95097656249997-6.25Q 100.12097656249998-4.93  99.05097656249997-3.66Q 97.97097656249997-2.39  96.51097656249998-1.39Q 95.04097656249996-0.39  93.19097656249997 0.2Q 91.33097656249997 0.78  88.99097656249997 0.78ZM 93.19097656249997-8.79L 93.19097656249997-8.79Q 94.41097656249997-8.79  95.36097656249997-9.2Q 96.31097656249997-9.62  97.07097656249996-10.28Q 97.83097656249997-10.94  98.39097656249997-11.82Q 98.95097656249997-12.7  99.34097656249997-13.62L 99.34097656249997-13.62L 99.34097656249997-54.05Q 98.41097656249997-56.1  96.87097656249998-57.54Q 95.34097656249997-58.98  93.14097656249997-58.98L 93.14097656249997-58.98Q 91.77097656249997-58.98  90.65097656249998-58.5Q 89.53097656249997-58.01  88.70097656249997-56.67Q 87.87097656249998-55.32  87.40097656249998-52.95Q 86.94097656249997-50.59  86.94097656249997-46.83L 86.94097656249997-46.83L 86.94097656249997-21.04Q 86.94097656249997-17.29  87.40097656249998-14.89Q 87.87097656249998-12.5  88.70097656249997-11.16Q 89.53097656249997-9.81  90.67097656249997-9.3Q 91.82097656249996-8.79  93.19097656249997-8.79Z" data-textpath="styled" data-text-anchor="middle" data-font-size="100" data-letterspacing="0" data-side="left" data-offset="0" data-dx="0" data-dy="139.5" data-xmlspace="preserve" data-href="" data-font="Fjalla One" data-font-src="/Content/clientfonts/fjallaone.woff" data-font-scale="contain" transform="translate(212,139.5)" data-x="212" data-y="0" fill="url(&quot;#linearGradientSkissxpuoji&quot;)"></path></g></svg></g><g transform="matrix(1.2374,0,0,1.2374,59.282,20.3189)"><svg width="70.226" height="72.953" viewBox="14.887,13.524000000000008,70.226,72.953"><defs><linearGradient x1="0" y1="0.5" x2="1" y2="0.5" id="linearGradientSkissxpuo7h"><stop offset="0%" stop-color="#d9971c"></stop><stop offset="100%" stop-color="#d9971c"></stop></linearGradient><linearGradient x1="0" y1="0.5" x2="1" y2="0.5" id="linearGradientSkissxpuo7h"><stop offset="0%" stop-color="#d9971c"></stop><stop offset="100%" stop-color="#d9971c"></stop></linearGradient><linearGradient x1="0" y1="0.5" x2="1" y2="0.5" id="linearGradientSkissxpuo7h"><stop offset="0%" stop-color="#d9971c"></stop><stop offset="100%" stop-color="#d9971c"></stop></linearGradient><linearGradient x1="0" y1="0.5" x2="1" y2="0.5" id="linearGradientSkissxpuo7h"><stop offset="0%" stop-color="#d9971c"></stop><stop offset="100%" stop-color="#d9971c"></stop></linearGradient><linearGradient x1="0" y1="0.5" x2="1" y2="0.5" id="linearGradientSkissxpuo7h"><stop offset="0%" stop-color="#d9971c"></stop><stop offset="100%" stop-color="#d9971c"></stop></linearGradient><linearGradient x1="0" y1="0.5" x2="1" y2="0.5" id="linearGradientSkissxpuo7h"><stop offset="0%" stop-color="#d9971c"></stop><stop offset="100%" stop-color="#d9971c"></stop></linearGradient><linearGradient x1="0" y1="0.5" x2="1" y2="0.5" id="linearGradientSkissxpuo7h"><stop offset="0%" stop-color="#d9971c"></stop><stop offset="100%" stop-color="#d9971c"></stop></linearGradient><linearGradient x1="0" y1="0.5" x2="1" y2="0.5" id="linearGradientSkissxpuo7h"><stop offset="0%" stop-color="#d9971c"></stop><stop offset="100%" stop-color="#d9971c"></stop></linearGradient></defs><g><path fill="url(&quot;#linearGradientSkissxpuo7h&quot;)" d="M61.701,73.266v8.211h18.412v-8.211H61.701z M48.756,62.566H30.344v8.209h18.412V62.566z M59.203,51.859  H40.797v8.209h18.406V51.859z M69.658,62.566H51.246v8.209h18.412V62.566z M40.797,81.477h18.406v-8.211H40.797V81.477z   M19.887,81.477h18.414v-8.211H19.887V81.477z M37.443,36.404c1.215-2.186,3.535-1.211,3.535-1.211l3.859-7.023  c-1.515-0.832-2.04-1.508-1.345-2.773c1.2-2.184,4.126-4.518,6.038-5.764l-0.322-1.109c-11.066,3.621-14.098,12.029-14.098,12.029  c0.931,1.623,0.59,3.445-0.015,4.561L37.443,36.404z M42.481,34.602l21.645,11.9c1.342,0.736,3.022,0.248,3.757-1.084  c0.738-1.342,0.247-3.023-1.091-3.766L45.146,29.756L42.481,34.602z M32.578,38.992l2.94,1.617c0.72,0.395,1.702,0.174,2.014-0.584  c0.164-0.404,0.637-2.012,0.657-2.186l-4.704-2.588c-0.136,0.111-1.241,1.371-1.493,1.729C31.518,37.646,31.86,38.598,32.578,38.992  z"></path></g></svg></g><g transform="matrix(0.5,0,0,0.5,152.75,52.5)"><svg width="409.5" height="246" style="overflow: visible;"><defs><linearGradient x1="0" y1="0.5" x2="1" y2="0.5" id="linearGradientSkissxpuojl"><stop offset="0%" stop-color="#7e7e7e"></stop><stop offset="100%" stop-color="#7e7e7e"></stop></linearGradient><linearGradient x1="0" y1="0.5" x2="1" y2="0.5" id="linearGradientSkissxpuojl"><stop offset="0%" stop-color="#7e7e7e"></stop><stop offset="100%" stop-color="#7e7e7e"></stop></linearGradient><linearGradient x1="0" y1="0.5" x2="1" y2="0.5" id="linearGradientSkissxpuojl"><stop offset="0%" stop-color="#7e7e7e"></stop><stop offset="100%" stop-color="#7e7e7e"></stop></linearGradient><linearGradient x1="0" y1="0.5" x2="1" y2="0.5" id="linearGradientSkissxpuojl"><stop offset="0%" stop-color="#7e7e7e"></stop><stop offset="100%" stop-color="#7e7e7e"></stop></linearGradient><linearGradient x1="0" y1="0.5" x2="1" y2="0.5" id="linearGradientSkissxpuojl"><stop offset="0%" stop-color="#7e7e7e"></stop><stop offset="100%" stop-color="#7e7e7e"></stop></linearGradient><linearGradient x1="0" y1="0.5" x2="1" y2="0.5" id="linearGradientSkissxpuojl"><stop offset="0%" stop-color="#7e7e7e"></stop><stop offset="100%" stop-color="#7e7e7e"></stop></linearGradient><linearGradient x1="0" y1="0.5" x2="1" y2="0.5" id="linearGradientSkissxpuojl"><stop offset="0%" stop-color="#7e7e7e"></stop><stop offset="100%" stop-color="#7e7e7e"></stop></linearGradient><linearGradient x1="0" y1="0.5" x2="1" y2="0.5" id="linearGradientSkissxpuojl"><stop offset="0%" stop-color="#7e7e7e"></stop><stop offset="100%" stop-color="#7e7e7e"></stop></linearGradient></defs><g><path d="M-123.776953125 0L-123.776953125-88.82L-111.426953125-88.82L-111.426953125-70.9L-111.816953125-62.01L-111.766953125-61.96Q-110.936953125-63.13 -109.83695312500001-64.21Q-108.736953125-65.28 -107.346953125-66.14Q-105.956953125-66.99 -104.276953125-67.48Q-102.58695312500001-67.97 -100.58695312500001-67.97L-100.58695312500001-67.97Q-99.556953125-67.97 -98.11695312500001-67.77Q-96.676953125-67.58 -95.13695312499999-66.8Q-93.60695312499999-66.02 -92.066953125-64.48Q-90.526953125-62.94 -89.326953125-60.25Q-88.13695312499999-57.57 -87.376953125-53.56Q-86.61695312500001-49.56 -86.61695312500001-43.85L-86.61695312500001-43.85L-86.61695312500001-23.49Q-86.61695312500001-17.77 -87.376953125-13.77Q-88.13695312499999-9.77 -89.35695312499999-7.06Q-90.576953125-4.35 -92.13695312499999-2.78Q-93.696953125-1.22 -95.316953125-0.44Q-96.926953125 0.34 -98.436953125 0.56Q-99.946953125 0.78 -101.076953125 0.78L-101.076953125 0.78Q-103.41695312499999 0.78 -105.296953125 0.2Q-107.176953125-0.39 -108.616953125-1.39Q-110.056953125-2.39 -111.156953125-3.66Q-112.256953125-4.93 -113.08695312500001-6.25L-113.08695312500001-6.25L-114.106953125 0L-123.776953125 0ZM-111.426953125-54.44L-111.426953125-13.62Q-111.036953125-12.7 -110.476953125-11.82Q-109.91695312499999-10.94 -109.176953125-10.28Q-108.446953125-9.62 -107.466953125-9.2Q-106.496953125-8.79 -105.276953125-8.79L-105.276953125-8.79Q-103.906953125-8.79 -102.786953125-9.3Q-101.656953125-9.81 -100.826953125-11.16Q-99.996953125-12.5 -99.536953125-14.89Q-99.076953125-17.29 -99.076953125-21.04L-99.076953125-21.04L-99.076953125-46.78Q-99.076953125-50.54 -99.536953125-52.91Q-99.996953125-55.27 -100.806953125-56.64Q-101.606953125-58.01 -102.736953125-58.5Q-103.856953125-58.98 -105.226953125-58.98L-105.226953125-58.98Q-107.516953125-58.98 -109.006953125-57.64Q-110.496953125-56.3 -111.426953125-54.44L-111.426953125-54.44ZM-75.3859375-15.72L-75.3859375-67.24L-63.0359375-67.24L-63.0359375-16.7Q-63.0359375-12.26 -61.6659375-10.52Q-60.3059375-8.79 -57.6659375-8.79L-57.6659375-8.79Q-55.8059375-8.79 -54.0559375-9.81Q-52.2959375-10.84 -50.8759375-12.74L-50.8759375-12.74L-50.8759375-67.24L-38.5259375-67.24L-38.5259375 0L-47.9459375 0L-49.1659375-7.18L-49.2159375-7.18Q-50.6859375-4.88 -52.315937500000004-3.34Q-53.955937500000005-1.81 -55.7359375-0.9Q-57.5159375 0 -59.3759375 0.39Q-61.2259375 0.78 -63.0859375 0.78L-63.0859375 0.78Q-68.9959375 0.78 -72.1959375-3.32Q-75.3859375-7.42 -75.3859375-15.72L-75.3859375-15.72ZM-24.22242187500001-16.75L-24.22242187500001-58.45L-29.442421875000008-58.45L-29.442421875000008-67.24L-23.142421875000007-67.24L-20.65242187500001-84.67L-11.862421875000006-84.67L-11.862421875000006-67.24L-1.1224218750000077-67.24L-1.1224218750000077-58.45L-11.862421875000006-58.45L-11.862421875000006-15.67Q-11.862421875000006-13.48 -11.452421875000006-12.13Q-11.032421875000008-10.79 -10.302421875000007-10.03Q-9.572421875000007-9.28 -8.592421875000007-9.03Q-7.612421875000006-8.79 -6.542421875000006-8.79L-6.542421875000006-8.79Q-4.732421875000007-8.79 -3.3424218750000065-9.23Q-1.952421875000006-9.67 -0.6824218750000064-10.45L-0.6824218750000064-10.45L-0.6824218750000064-3.61Q-1.7624218750000082-2.29 -3.0024218750000067-1.46Q-4.252421875000007-0.63 -5.562421875000005-0.12Q-6.882421875000006 0.39 -8.252421875000007 0.59Q-9.622421875000008 0.78 -10.942421875000008 0.78L-10.942421875000008 0.78Q-13.522421875000006 0.78 -15.922421875000008 0.1Q-18.312421875000005-0.59 -20.162421875000007-2.51Q-22.022421875000006-4.44 -23.122421875000008-7.86Q-24.22242187500001-11.28 -24.22242187500001-16.75L-24.22242187500001-16.75ZM 8.736562499999996-16.75L 8.736562499999996-58.45L 3.5165624999999965-58.45L 3.5165624999999965-67.24L 9.816562499999996-67.24L 12.306562499999997-84.67L 21.096562499999997-84.67L 21.096562499999997-67.24L 31.836562499999996-67.24L 31.836562499999996-58.45L 21.096562499999997-58.45L 21.096562499999997-15.67Q 21.096562499999997-13.48  21.506562499999998-12.13Q 21.926562499999996-10.79  22.656562499999996-10.03Q 23.386562499999997-9.28  24.366562499999997-9.03Q 25.346562499999997-8.79  26.416562499999998-8.79L 26.416562499999998-8.79Q 28.226562499999996-8.79  29.616562499999997-9.23Q 31.006562499999998-9.67  32.2765625-10.45L 32.2765625-10.45L 32.2765625-3.61Q 31.196562499999995-2.29  29.956562499999997-1.46Q 28.706562499999997-0.63  27.396562499999998-0.12Q 26.076562499999998 0.39  24.706562499999997 0.59Q 23.336562499999996 0.78  22.016562499999996 0.78L 22.016562499999996 0.78Q 19.436562499999997 0.78  17.036562499999995 0.1Q 14.646562499999996-0.59  12.796562499999997-2.51Q 10.936562499999997-4.44  9.836562499999996-7.86Q 8.736562499999996-11.28  8.736562499999996-16.75L 8.736562499999996-16.75ZM 57.225546875000006 0.73L 57.225546875000006 0.73Q 55.07554687500001 0.73  52.85554687500001 0.39Q 50.635546875 0.05  48.555546875000005-1.03Q 46.48554687500001-2.1  44.655546875000006-4.1Q 42.82554687500001-6.1  41.45554687500001-9.38Q 40.085546875000006-12.65  39.305546875000005-17.43Q 38.525546875-22.22  38.525546875-28.86L 38.525546875-28.86L 38.525546875-39.4Q 38.525546875-45.95  39.335546875000006-50.61Q 40.13554687500001-55.27  41.525546875-58.45Q 42.915546875000004-61.62  44.775546875-63.5Q 46.635546875-65.38  48.70554687500001-66.38Q 50.78554687500001-67.38  52.975546875000006-67.7Q 55.17554687500001-68.02  57.275546875-68.02L 57.275546875-68.02Q 59.275546875-68.02  61.42554687500001-67.72Q 63.57554687500001-67.43  65.62554687500001-66.48Q 67.67554687500001-65.53  69.50554687500001-63.65Q 71.335546875-61.77  72.725546875-58.59Q 74.125546875-55.42  74.92554687500001-50.71Q 75.73554687500001-46  75.73554687500001-39.4L 75.73554687500001-39.4L 75.73554687500001-28.86Q 75.73554687500001-22.31  74.905546875-17.58Q 74.07554687500001-12.84  72.655546875-9.57Q 71.23554687500001-6.3  69.38554687500002-4.27Q 67.525546875-2.25  65.475546875-1.12Q 63.42554687500001 0  61.305546875000005 0.37Q 59.17554687500001 0.73  57.225546875000006 0.73ZM 57.32554687500001-8.79L 57.32554687500001-8.79Q 58.98554687500001-8.79  60.135546875-9.64Q 61.275546875-10.5  61.98554687500001-12.45Q 62.695546875000005-14.4  63.015546875000005-17.6Q 63.32554687500001-20.8  63.32554687500001-25.54L 63.32554687500001-25.54L 63.32554687500001-42.09Q 63.32554687500001-46.83  63.015546875000005-50.05Q 62.695546875000005-53.27  61.98554687500001-55.25Q 61.275546875-57.23  60.135546875-58.11Q 58.98554687500001-58.98  57.32554687500001-58.98L 57.32554687500001-58.98Q 55.56554687500001-58.98  54.36554687500001-58.11Q 53.17554687500001-57.23  52.39554687500001-55.25Q 51.61554687500001-53.27  51.265546875000005-50.05Q 50.92554687500001-46.83  50.92554687500001-42.09L 50.92554687500001-42.09L 50.92554687500001-25.54Q 50.92554687500001-20.8  51.265546875000005-17.6Q 51.61554687500001-14.4  52.39554687500001-12.45Q 53.17554687500001-10.5  54.36554687500001-9.64Q 55.56554687500001-8.79  57.32554687500001-8.79ZM 86.67226562500001 0L 86.67226562500001-67.24L 96.19226562500002-67.24L 97.31226562500001-60.06L 97.31226562500001-60.01Q 98.78226562500001-62.3  100.46226562500001-63.84Q 102.15226562500001-65.38  103.95226562500001-66.31Q 105.76226562500001-67.24  107.64226562500002-67.63Q 109.52226562500002-68.02  111.37226562500001-68.02L 111.37226562500001-68.02Q 117.28226562500001-68.02  120.48226562500001-63.89Q 123.68226562500001-59.77  123.68226562500001-51.51L 123.68226562500001-51.51L 123.68226562500001 0L 111.33226562500002 0L 111.33226562500002-51.07Q 111.33226562500002-55.52  109.96226562500001-57.25Q 108.59226562500001-58.98  105.95226562500001-58.98L 105.95226562500001-58.98Q 104.10226562500002-58.98  102.27226562500002-57.76Q 100.44226562500002-56.54  99.02226562500002-54.39L 99.02226562500002-54.39L 99.02226562500002 0L 86.67226562500001 0Z" data-textpath="button" data-text-anchor="middle" data-font-size="100" data-letterspacing="0" data-side="left" data-offset="0" data-dx="0" data-dy="139.5" data-xmlspace="preserve" data-href="" data-font="Fjalla One" data-font-src="/Content/clientfonts/fjallaone.woff" data-font-scale="contain" transform="translate(136.5,139.5)" data-x="136.5" data-y="0" fill="url(&quot;#linearGradientSkissxpuojl&quot;)"></path></g></svg></g><g transform="matrix(1.829,0,0,1.829,45.0734,7.0729)"><svg width="64" height="64" viewBox="8,8,64,64" class="thumb"><defs><linearGradient x1="0" y1="0.5" x2="1" y2="0.5" id="linearGradientSkissxpuo7r"><stop offset="0%" stop-color="#6d6e71"></stop><stop offset="100%" stop-color="#6d6e71"></stop></linearGradient><linearGradient x1="0" y1="0.5" x2="1" y2="0.5" id="linearGradientSkissxpuo7r"><stop offset="0%" stop-color="#6d6e71"></stop><stop offset="100%" stop-color="#6d6e71"></stop></linearGradient><linearGradient x1="0" y1="0.5" x2="1" y2="0.5" id="linearGradientSkissxpuo7r"><stop offset="0%" stop-color="#6d6e71"></stop><stop offset="100%" stop-color="#6d6e71"></stop></linearGradient><linearGradient x1="0" y1="0.5" x2="1" y2="0.5" id="linearGradientSkissxpuo7r"><stop offset="0%" stop-color="#6d6e71"></stop><stop offset="100%" stop-color="#6d6e71"></stop></linearGradient><linearGradient x1="0" y1="0.5" x2="1" y2="0.5" id="linearGradientSkissxpuo7r"><stop offset="0%" stop-color="#6d6e71"></stop><stop offset="100%" stop-color="#6d6e71"></stop></linearGradient><linearGradient x1="0" y1="0.5" x2="1" y2="0.5" id="linearGradientSkissxpuo7r"><stop offset="0%" stop-color="#6d6e71"></stop><stop offset="100%" stop-color="#6d6e71"></stop></linearGradient><linearGradient x1="0" y1="0.5" x2="1" y2="0.5" id="linearGradientSkissxpuo7r"><stop offset="0%" stop-color="#6d6e71"></stop><stop offset="100%" stop-color="#6d6e71"></stop></linearGradient><linearGradient x1="0" y1="0.5" x2="1" y2="0.5" id="linearGradientSkissxpuo7r"><stop offset="0%" stop-color="#6d6e71"></stop><stop offset="100%" stop-color="#6d6e71"></stop></linearGradient></defs><g><path d="M67,67H13V13h54V67z M15,65h50V15H15V65z" fill="url(&quot;#linearGradientSkissxpuo7r&quot;)"></path></g></svg></g></g></svg>