<svg xmlns:xlink="http://www.w3.org/1999/xlink" xmlns="http://www.w3.org/2000/svg" width="100" height="100" viewBox="14.887,13.524000000000008,70.226,72.953"><defs><linearGradient x1="0" y1="0.5" x2="1" y2="0.5" id="linearGradientSkissxpuo7h"><stop offset="0%" stop-color="#d9971c"></stop><stop offset="100%" stop-color="#d9971c"></stop></linearGradient><linearGradient x1="0" y1="0.5" x2="1" y2="0.5" id="linearGradientSkissxpuo7h"><stop offset="0%" stop-color="#d9971c"></stop><stop offset="100%" stop-color="#d9971c"></stop></linearGradient><linearGradient x1="0" y1="0.5" x2="1" y2="0.5" id="linearGradientSkissxpuo7h"><stop offset="0%" stop-color="#d9971c"></stop><stop offset="100%" stop-color="#d9971c"></stop></linearGradient><linearGradient x1="0" y1="0.5" x2="1" y2="0.5" id="linearGradientSkissxpuo7h"><stop offset="0%" stop-color="#d9971c"></stop><stop offset="100%" stop-color="#d9971c"></stop></linearGradient><linearGradient x1="0" y1="0.5" x2="1" y2="0.5" id="linearGradientSkissxpuo7h"><stop offset="0%" stop-color="#d9971c"></stop><stop offset="100%" stop-color="#d9971c"></stop></linearGradient><linearGradient x1="0" y1="0.5" x2="1" y2="0.5" id="linearGradientSkissxpuo7h"><stop offset="0%" stop-color="#d9971c"></stop><stop offset="100%" stop-color="#d9971c"></stop></linearGradient><linearGradient x1="0" y1="0.5" x2="1" y2="0.5" id="linearGradientSkissxpuo7h"><stop offset="0%" stop-color="#d9971c"></stop><stop offset="100%" stop-color="#d9971c"></stop></linearGradient><linearGradient x1="0" y1="0.5" x2="1" y2="0.5" id="linearGradientSkissxpuo7h"><stop offset="0%" stop-color="#d9971c"></stop><stop offset="100%" stop-color="#d9971c"></stop></linearGradient><linearGradient x1="0" y1="0.5" x2="1" y2="0.5" id="linearGradientSkissxpuo7h"><stop offset="0%" stop-color="#d9971c"></stop><stop offset="100%" stop-color="#d9971c"></stop></linearGradient></defs><g><path fill="url(&quot;#linearGradientSkissxpuo7h&quot;)" d="M61.701,73.266v8.211h18.412v-8.211H61.701z M48.756,62.566H30.344v8.209h18.412V62.566z M59.203,51.859  H40.797v8.209h18.406V51.859z M69.658,62.566H51.246v8.209h18.412V62.566z M40.797,81.477h18.406v-8.211H40.797V81.477z   M19.887,81.477h18.414v-8.211H19.887V81.477z M37.443,36.404c1.215-2.186,3.535-1.211,3.535-1.211l3.859-7.023  c-1.515-0.832-2.04-1.508-1.345-2.773c1.2-2.184,4.126-4.518,6.038-5.764l-0.322-1.109c-11.066,3.621-14.098,12.029-14.098,12.029  c0.931,1.623,0.59,3.445-0.015,4.561L37.443,36.404z M42.481,34.602l21.645,11.9c1.342,0.736,3.022,0.248,3.757-1.084  c0.738-1.342,0.247-3.023-1.091-3.766L45.146,29.756L42.481,34.602z M32.578,38.992l2.94,1.617c0.72,0.395,1.702,0.174,2.014-0.584  c0.164-0.404,0.637-2.012,0.657-2.186l-4.704-2.588c-0.136,0.111-1.241,1.371-1.493,1.729C31.518,37.646,31.86,38.598,32.578,38.992  z"></path></g></svg>